# xmcd
#
# Track frame offsets: 
#        150
#        34507
#        57598
#        75206
#        88682
#        107826
#        128944
#        146942
#        160498
#        177023
#        199035
#
# Disc length: 2876 seconds
#
# Revision: 0
# Processed by: cddbd v1.5.2PL0 Copyright (c) Steve Scherf et al.
# Submitted via: ExactAudioCopy v0.99pb4
#
DISCID=920b3a0b
DTITLE=Wild Horse - Wild Horse
DYEAR=1997
DGENRE=Blues
TTITLE0=One/Two Kick
TTITLE1=Stage Fright
TTITLE2=Roamin' Wyoming
TTITLE3=Cree Hop
TTITLE4=Gopher It
TTITLE5=The Wave
TTITLE6=Baby Face
TTITLE7=Mugs
TTITLE8=Grassy Blues
TTITLE9=Big Red
TTITLE10=Catch 22
EXTD=
EXTT0=
EXTT1=
EXTT2=
EXTT3=
EXTT4=
EXTT5=
EXTT6=
EXTT7=
EXTT8=
EXTT9=
EXTT10=
PLAYORDER=
